HIERARCHY
ROOT Hips
{
    OFFSET   0.000000   0.000000   0.000000
    CHANNELS 6 Xposition Yposition Zposition Zrotation Xrotation Yrotation
    JOINT Chest
    {
        OFFSET   0.000000   8.007230   0.000000
        CHANNELS 3 Zrotation Xrotation Yrotation
        JOINT Chest2
        {
            OFFSET   0.000000  22.077100   0.000000
            CHANNELS 3 Zrotation Xrotation Yrotation
            JOINT Neck
            {
                OFFSET   0.000000  23.254700   0.000000
                CHANNELS 3 Zrotation Xrotation Yrotation
                JOINT Head
                {
                    OFFSET   0.000010  14.370000   1.956610
                    CHANNELS 3 Zrotation Xrotation Yrotation
                    End Site
                    {
                        OFFSET   0.000000  19.566000   0.000000
                    }
                }
            }
            JOINT LeftCollar
            {
                OFFSET   3.911900  19.017000  -0.467063
                CHANNELS 3 Zrotation Xrotation Yrotation
                JOINT LeftShoulder
                {
                    OFFSET  10.383700   0.000000   0.000000
                    CHANNELS 3 Zrotation Xrotation Yrotation
                    JOINT LeftElbow
                    {
                        OFFSET  26.662100   0.001671   0.000522
                        CHANNELS 3 Zrotation Xrotation Yrotation
                        JOINT LeftWrist
                        {
                            OFFSET  28.869000   0.000037  -0.000114
                            CHANNELS 3 Zrotation Xrotation Yrotation
                            JOINT LeftFinger0
                            {
                                OFFSET   2.044650  -2.323450   3.252850
                                CHANNELS 3 Zrotation Xrotation Yrotation
                                JOINT LeftFinger01
                                {
                                    OFFSET   3.088140   0.000000   0.000000
                                    CHANNELS 3 Zrotation Xrotation Yrotation
                                    JOINT LeftFinger02
                                    {
                                        OFFSET   2.639460   0.000000   0.000000
                                        CHANNELS 3 Zrotation Xrotation Yrotation
                                        End Site
                                        {
                                            OFFSET   2.582190   0.000000   0.000000
                                        }
                                    }
                                }
                            }
                            JOINT LeftFinger1
                            {
                                OFFSET   8.364480   0.000000   3.252850
                                CHANNELS 3 Zrotation Xrotation Yrotation
                                JOINT LeftFinger11
                                {
                                    OFFSET   4.646930   0.000000   0.000000
                                    CHANNELS 3 Zrotation Xrotation Yrotation
                                    JOINT LeftFinger12
                                    {
                                        OFFSET   2.323470   0.000000   0.000000
                                        CHANNELS 3 Zrotation Xrotation Yrotation
                                        End Site
                                        {
                                            OFFSET   2.273050   0.000000   0.000000
                                        }
                                    }
                                }
                            }
                            JOINT LeftFinger2
                            {
                                OFFSET   8.364490   0.000016   1.078090
                                CHANNELS 3 Zrotation Xrotation Yrotation
                                JOINT LeftFinger21
                                {
                                    OFFSET   5.111620   0.000000   0.000000
                                    CHANNELS 3 Zrotation Xrotation Yrotation
                                    JOINT LeftFinger22
                                    {
                                        OFFSET   2.788150   0.000013   0.000000
                                        CHANNELS 3 Zrotation Xrotation Yrotation
                                        End Site
                                        {
                                            OFFSET   2.727660   0.000000   0.000000
                                        }
                                    }
                                }
                            }
                            JOINT LeftFinger3
                            {
                                OFFSET   7.899780   0.000016  -1.078090
                                CHANNELS 3 Zrotation Xrotation Yrotation
                                JOINT LeftFinger31
                                {
                                    OFFSET   4.646930   0.000000   0.000000
                                    CHANNELS 3 Zrotation Xrotation Yrotation
                                    JOINT LeftFinger32
                                    {
                                        OFFSET   2.323470   0.000000   0.000000
                                        CHANNELS 3 Zrotation Xrotation Yrotation
                                        End Site
                                        {
                                            OFFSET   2.273050   0.000000   0.000000
                                        }
                                    }
                                }
                            }
                            JOINT LeftFinger4
                            {
                                OFFSET   7.435080   0.000000  -3.252850
                                CHANNELS 3 Zrotation Xrotation Yrotation
                                JOINT LeftFinger41
                                {
                                    OFFSET   3.717550   0.000000   0.000000
                                    CHANNELS 3 Zrotation Xrotation Yrotation
                                    JOINT LeftFinger42
                                    {
                                        OFFSET   1.858760   0.000000   0.000000
                                        CHANNELS 3 Zrotation Xrotation Yrotation
                                        End Site
                                        {
                                            OFFSET   1.818440   0.000000   0.000000
                                        }
                                    }
                                }
                            }
                        }
                    }
                }
            }
            JOINT RightCollar
            {
                OFFSET  -3.911900  19.017000  -0.467064
                CHANNELS 3 Zrotation Xrotation Yrotation
                JOINT RightShoulder
                {
                    OFFSET -10.383700   0.000000   0.000000
                    CHANNELS 3 Zrotation Xrotation Yrotation
                    JOINT RightElbow
                    {
                        OFFSET -26.662100   0.001633   0.000260
                        CHANNELS 3 Zrotation Xrotation Yrotation
                        JOINT RightWrist
                        {
                            OFFSET -28.869000  -0.000045  -0.000080
                            CHANNELS 3 Zrotation Xrotation Yrotation
                            JOINT RightFinger0
                            {
                                OFFSET  -2.044660  -2.323490   3.252850
                                CHANNELS 3 Zrotation Xrotation Yrotation
                                JOINT RightFinger01
                                {
                                    OFFSET  -3.088140   0.000000   0.000000
                                    CHANNELS 3 Zrotation Xrotation Yrotation
                                    JOINT RightFinger02
                                    {
                                        OFFSET  -2.639450   0.000000   0.000000
                                        CHANNELS 3 Zrotation Xrotation Yrotation
                                        End Site
                                        {
                                            OFFSET  -2.582190   0.000000   0.000000
                                        }
                                    }
                                }
                            }
                            JOINT RightFinger1
                            {
                                OFFSET  -8.364480   0.000000   3.252850
                                CHANNELS 3 Zrotation Xrotation Yrotation
                                JOINT RightFinger11
                                {
                                    OFFSET  -4.646920   0.000000   0.000000
                                    CHANNELS 3 Zrotation Xrotation Yrotation
                                    JOINT RightFinger12
                                    {
                                        OFFSET  -2.323470   0.000000   0.000000
                                        CHANNELS 3 Zrotation Xrotation Yrotation
                                        End Site
                                        {
                                            OFFSET  -2.273050   0.000000   0.000000
                                        }
                                    }
                                }
                            }
                            JOINT RightFinger2
                            {
                                OFFSET  -8.364480   0.000000   1.078090
                                CHANNELS 3 Zrotation Xrotation Yrotation
                                JOINT RightFinger21
                                {
                                    OFFSET  -5.111610   0.000000   0.000000
                                    CHANNELS 3 Zrotation Xrotation Yrotation
                                    JOINT RightFinger22
                                    {
                                        OFFSET  -2.788160   0.000000   0.000000
                                        CHANNELS 3 Zrotation Xrotation Yrotation
                                        End Site
                                        {
                                            OFFSET  -2.727660   0.000000   0.000000
                                        }
                                    }
                                }
                            }
                            JOINT RightFinger3
                            {
                                OFFSET  -7.899780   0.000000  -1.078090
                                CHANNELS 3 Zrotation Xrotation Yrotation
                                JOINT RightFinger31
                                {
                                    OFFSET  -4.646930   0.000000   0.000000
                                    CHANNELS 3 Zrotation Xrotation Yrotation
                                    JOINT RightFinger32
                                    {
                                        OFFSET  -2.323470   0.000000   0.000000
                                        CHANNELS 3 Zrotation Xrotation Yrotation
                                        End Site
                                        {
                                            OFFSET  -2.273050   0.000000   0.000000
                                        }
                                    }
                                }
                            }
                            JOINT RightFinger4
                            {
                                OFFSET  -7.435090   0.000000  -3.252850
                                CHANNELS 3 Zrotation Xrotation Yrotation
                                JOINT RightFinger41
                                {
                                    OFFSET  -3.717550   0.000000   0.000000
                                    CHANNELS 3 Zrotation Xrotation Yrotation
                                    JOINT RightFinger42
                                    {
                                        OFFSET  -1.858760   0.000000   0.000000
                                        CHANNELS 3 Zrotation Xrotation Yrotation
                                        End Site
                                        {
                                            OFFSET  -1.818440   0.000000   0.000000
                                        }
                                    }
                                }
                            }
                        }
                    }
                }
            }
        }
    }
    JOINT LeftHip
    {
        OFFSET   9.782990   0.000000   0.000000
        CHANNELS 3 Zrotation Xrotation Yrotation
        JOINT LeftKnee
        {
            OFFSET  -0.000063 -41.789100   0.001657
            CHANNELS 3 Zrotation Xrotation Yrotation
            JOINT LeftAnkle
            {
                OFFSET   0.000078 -41.133200  -0.000113
                CHANNELS 3 Zrotation Xrotation Yrotation
                JOINT LeftToe
                {
                    OFFSET   0.000000  -6.358970  14.674500
                    CHANNELS 3 Zrotation Xrotation Yrotation
                    End Site
                    {
                        OFFSET   0.000000   0.000000   3.913200
                    }
                }
            }
        }
    }
    JOINT RightHip
    {
        OFFSET  -9.782990   0.000000   0.000000
        CHANNELS 3 Zrotation Xrotation Yrotation
        JOINT RightKnee
        {
            OFFSET   0.000053 -41.789200   0.000277
            CHANNELS 3 Zrotation Xrotation Yrotation
            JOINT RightAnkle
            {
                OFFSET   0.000030 -41.133200  -0.000150
                CHANNELS 3 Zrotation Xrotation Yrotation
                JOINT RightToe
                {
                    OFFSET   0.000000  -6.358960  14.674500
                    CHANNELS 3 Zrotation Xrotation Yrotation
                    End Site
                    {
                        OFFSET   0.000000   0.000000   3.913200
                    }
                }
            }
        }
    }
}
MOTION
Frames: 4
Frame Time:   0.016667
  2.299620  88.997400  -0.669033 -15.348800  -7.303480 -48.213100   1.247530  10.503400  -2.342290   3.017400  20.942300  -5.051500   3.793720   1.310490  -0.085582   6.245140   2.622910  34.484800  -1.899580   1.193260   3.326670 -66.582800  24.080900 -11.918400  -2.784820  -4.718510 -20.283600  10.873400  -4.438170   3.087530  42.188000  38.928700 -69.901300 -32.541600   0.000000   0.000107 -11.270800   0.002706  -0.000000 -30.528500   5.478680  -9.196320 -25.338600   0.003888   0.007054 -17.737100  -0.003054   0.005970 -28.160100  -1.891550   3.528590 -33.549700   0.010775   0.002828 -22.344100  -0.005650   0.000160 -27.780700  -1.868120   3.541020 -31.006000  -0.006186   0.003595 -20.650000   0.000889   0.003177 -28.446800  -1.909150   3.519060 -42.758200  -0.006465  -0.000250 -28.477000   0.000578   0.000041   5.758460  -0.521547   7.128100  23.913400 -35.260400   2.341900 -28.354900 -18.236200   8.919210 -106.280000 -78.209100 -94.144900 -54.618800  36.114800  68.577100  -2.976940   0.000126  -0.000583  -6.488440  -0.001459   0.000649   8.773620   3.302460  20.531900   7.661300   0.003525  -0.007056   5.362910   0.000937  -0.000212  15.696000   2.509520   8.849720  15.889000   0.000674  -0.000843  10.582100   0.002135  -0.000505   8.330890   1.339120   9.089700   8.436260  -0.004863  -0.013077   5.618540   0.002677  -0.006871   9.596610   1.543420   9.062710  14.576800  -0.000831  -0.010432   9.708180  -0.006452  -0.005483   0.668789  21.495400  12.405600   0.368475   0.484107  25.801500   1.205210  -7.858620  15.970600  -0.000000   0.000000  -0.000000   8.950670   7.580180   6.277780  -7.023430   9.587590   5.798980   5.997340  -1.636530  24.888000   0.000000   0.000000   0.000000
  2.391650  88.987400  -0.617621 -15.412100  -7.179470 -48.623900   1.249830  10.516500  -2.350620   3.024230  20.968300  -5.069680   3.777360   1.327730  -0.084985   6.214900   2.657370  35.240600  -1.888310   1.199010   3.327040 -66.553900  24.132900 -11.958600  -2.824100  -4.758960 -20.240500  10.846500  -4.435140   3.076020  42.164600  38.896700 -69.858000 -32.545500   0.000000   0.000102 -11.272800   0.002667  -0.000000 -30.520100   5.469830  -9.184840 -25.330800   0.004084   0.007152 -17.731600  -0.003062   0.006260 -28.157800  -1.894090   3.533640 -33.533800   0.010774   0.002835 -22.333500  -0.005653   0.000115 -27.778100  -1.870600   3.546100 -30.991700  -0.006184   0.003598 -20.640500   0.000847   0.003152 -28.433100  -1.911010   3.524440 -42.738100  -0.006477  -0.000268 -28.463600   0.000577   0.000000   5.705320  -0.598110   7.128380  23.497600 -34.640100   2.722900 -27.729500 -17.698700   7.633850 -104.707000 -77.999000 -92.559700 -54.843900  36.096800  68.278000  -2.879860   0.000000  -0.000513  -6.439910  -0.001435   0.000652   8.129950   2.992770  20.132400   7.077810   0.003579  -0.007940   4.954480   0.001204  -0.000153  15.207700   2.417900   8.839250  15.393100   0.000744  -0.000702  10.251800   0.002080  -0.000355   7.413760   1.183780   9.080850   7.506140  -0.004802  -0.010362   4.999090   0.002702  -0.006638   9.035530   1.443610   9.046090  13.722200  -0.000848  -0.006479   9.138960  -0.006289  -0.006017   0.572295  21.513700  12.478500   0.357402   0.482154  25.967100   1.278810  -7.917950  16.187600  -0.000000   0.000000   0.000000   8.950390   7.498900   6.349390  -7.052330   9.602060   5.849280   6.117650  -1.564430  25.217700   0.000000   0.000000  -0.000000
  2.476390  88.981100  -0.566480 -15.472700  -7.061810 -49.024800   1.245860  10.525900  -2.346730   3.015250  20.987300  -5.061370   3.775220   1.342940  -0.084402   6.203130   2.692180  35.913400  -1.875460   1.193950   3.327060 -66.520500  24.228700 -12.013100  -2.854590  -4.799990 -20.174900  10.788500  -4.349980   3.043030  42.218600  38.960900 -69.996700 -32.513700   0.000000   0.000049 -11.256900   0.002623   0.000000 -30.519500   5.509590  -9.250610 -25.335400   0.004281   0.007242 -17.734800  -0.003067   0.006551 -28.163400  -1.854430   3.459010 -33.556500   0.010770   0.002815 -22.348600  -0.005651   0.000086 -27.783900  -1.831460   3.471210 -31.010100  -0.006184   0.003604 -20.652700   0.000808   0.003120 -28.439500  -1.871110   3.450030 -42.743600  -0.006474  -0.000273 -28.467200   0.000575  -0.000048   5.641020  -0.668453   7.127150  23.137700 -34.083100   3.140460 -27.029000 -17.075000   6.176690 -101.092000 -78.130600 -88.878800 -55.111300  36.191800  68.087700  -2.765910  -0.000119  -0.000433  -6.382940  -0.001412   0.000657   7.336310   2.596290  19.337200   6.350940   0.003661  -0.007364   4.445650   0.001488  -0.000082  14.627700   2.277020   8.677560  14.794700   0.000841  -0.000548   9.853270   0.002026  -0.000212   6.442570   1.016110   8.913890   6.515580  -0.004657  -0.006389   4.339380   0.002732  -0.006182   8.261290   1.297420   8.870710  12.533500  -0.000836  -0.005116   8.347280  -0.006211  -0.006473   0.474921  21.571800  12.549300   0.330654   0.430704  26.180300   1.346770  -7.971670  16.351200  -0.000000   0.000000   0.000000   8.942250   7.435300   6.406980  -7.075700   9.593060   5.868020   6.225260  -1.483950  25.572000  -0.000000   0.000000   0.000000
  2.557500  88.976600  -0.515528 -15.525600  -6.948480 -49.399200   1.236030  10.532400  -2.331740   2.993240  21.001100  -5.029030   3.774910   1.350960  -0.083811   6.211340   2.704160  36.475500  -1.860990   1.188890   3.327060 -66.478700  24.335700 -12.081900  -2.875630  -4.836520 -20.106000  10.747400  -4.267750   3.018890  42.273100  39.024700 -70.135800 -32.481900   0.000000  -0.000000 -11.241000   0.002576  -0.000000 -30.518900   5.549320  -9.316400 -25.340000   0.004478   0.007328 -17.738000  -0.003069   0.006848 -28.168800  -1.814770   3.384400 -33.579100   0.010767   0.002794 -22.363700  -0.005650   0.000061 -27.789500  -1.792320   3.396330 -31.028600  -0.006186   0.003608 -20.665000   0.000766   0.003088 -28.445700  -1.831200   3.375630 -42.749100  -0.006470  -0.000274 -28.470900   0.000575  -0.000096   5.574320  -0.740994   7.117960  22.776800 -33.644700   3.575490 -26.193500 -16.384300   4.612530 -96.175800 -78.244600 -83.911400 -55.517100  36.249100  67.784900  -2.664070  -0.000241  -0.000348  -6.332030  -0.001389   0.000660   6.514910   2.186580  18.387800   5.605330   0.003748  -0.006247   3.923720   0.001771   0.000000  14.032000   2.094700   8.288040  14.172700   0.000946  -0.000381   9.439010   0.001977  -0.000080   5.564160   0.849897   8.506970   5.616540  -0.004416  -0.002400   3.740630   0.002764  -0.005503   7.412980   1.123080   8.469440  11.227300  -0.000815  -0.004310   7.477390  -0.005982  -0.006701   0.382983  21.612700  12.616400   0.312496   0.380486  26.404500   1.412470  -8.023670  16.480100   0.000000   0.000000   0.000000   8.921640   7.387220   6.461440  -7.084200   9.557160   5.870100   6.316330  -1.395690  25.927800  -0.000000   0.000000  -0.000000
